<?xml version="1.0"?>
<svg xmlns="http://www.w3.org/2000/svg" width="2400" height="1360" viewBox="0 0 2400 1360" font-family="&#39;Geist Mono&#39;,monospace">
<defs>
<pattern id="grid" width="80" height="80" patternUnits="userSpaceOnUse"><path d="M80 0H0V80" fill="none" stroke="rgba(255,255,255,0.022)" stroke-width="1"></path></pattern></defs>
<rect x="0" y="0" width="2400" height="1360" fill="#0F1117"></rect>
<rect x="0" y="0" width="2400" height="1360" fill="url(#grid)"></rect><path d="M90,44 L44,44 L44,90" fill="none" stroke="#FE5A19" stroke-width="2"></path><path d="M2310,44 L2356,44 L2356,90" fill="none" stroke="#FE5A19" stroke-width="2"></path><path d="M90,1316 L44,1316 L44,1270" fill="none" stroke="#FE5A19" stroke-width="2"></path><path d="M2310,1316 L2356,1316 L2356,1270" fill="none" stroke="#FE5A19" stroke-width="2"></path><image x="104" y="86" height="54" width="305.4"></image><g><rect x="1904" y="98" width="392" height="64" rx="10" fill="none" stroke="rgba(255,255,255,0.10)"></rect><text x="2100" y="139" text-anchor="middle" font-family="&#39;Geist Mono&#39;,monospace" font-weight="500" font-size="28" letter-spacing="2" fill="#8A8F99">NOV 2024 — JUN 2026</text></g><text x="104" y="262" font-family="&#39;Geist Mono&#39;,monospace" font-weight="600" font-size="52" letter-spacing="1" fill="#FFFFFF">CUMULATIVE RETURN VS BENCHMARKS</text><text x="104" y="314" font-family="&#39;Geist Mono&#39;,monospace" font-size="28" letter-spacing="0.5" fill="#666666">gross of fees</text><line x1="1660.4" x2="1706.4" y1="252" y2="252" stroke="#FE5A19" stroke-width="6" stroke-linecap="round"></line><text x="1718.4" y="262" font-family="&#39;Geist Mono&#39;,monospace" font-size="28" fill="#FE5A19">Flagship</text><line x1="1898.8000000000002" x2="1944.8000000000002" y1="252" y2="252" stroke="#5C7CF5" stroke-width="4" stroke-linecap="round"></line><text x="1956.8000000000002" y="262" font-family="&#39;Geist Mono&#39;,monospace" font-size="28" fill="#5C7CF5">S&amp;P 500</text><line x1="2120.4" x2="2166.4" y1="252" y2="252" stroke="#EC6A9C" stroke-width="4" stroke-linecap="round"></line><text x="2178.4" y="262" font-family="&#39;Geist Mono&#39;,monospace" font-size="28" fill="#EC6A9C">Bitcoin</text><svg x="110" y="384" width="2210" height="871.1" viewBox="0 0 2192 864" overflow="visible"><defs><linearGradient id="fgl" x1="0" y1="0" x2="1" y2="0"><stop offset="0" stop-color="#FE5A19"></stop><stop offset="1" stop-color="#FF9B15"></stop></linearGradient><linearGradient id="fga" x1="0" y1="0" x2="0" y2="1"><stop offset="0" stop-color="#FE5A19" stop-opacity="0.30"></stop><stop offset="0.8" stop-color="#FE5A19" stop-opacity="0.02"></stop><stop offset="1" stop-color="#FE5A19" stop-opacity="0"></stop></linearGradient></defs><line x1="104" x2="1928" y1="736.6315789473683" y2="736.6315789473683" stroke="rgba(255,255,255,0.05)" stroke-width="1"></line><text x="82" y="745.6315789473683" text-anchor="end" font-family="&#39;Geist Mono&#39;,monospace" font-weight="500" font-size="28" fill="#555555">−20%</text><line x1="104" x2="1928" y1="579.1578947368421" y2="579.1578947368421" stroke="rgba(255,255,255,0.20)" stroke-width="2"></line><text x="82" y="588.1578947368421" text-anchor="end" font-family="&#39;Geist Mono&#39;,monospace" font-weight="500" font-size="28" fill="#555555">0%</text><line x1="104" x2="1928" y1="421.6842105263158" y2="421.6842105263158" stroke="rgba(255,255,255,0.05)" stroke-width="1"></line><text x="82" y="430.6842105263158" text-anchor="end" font-family="&#39;Geist Mono&#39;,monospace" font-weight="500" font-size="28" fill="#555555">+20%</text><line x1="104" x2="1928" y1="264.2105263157895" y2="264.2105263157895" stroke="rgba(255,255,255,0.05)" stroke-width="1"></line><text x="82" y="273.2105263157895" text-anchor="end" font-family="&#39;Geist Mono&#39;,monospace" font-weight="500" font-size="28" fill="#555555">+40%</text><line x1="104" x2="1928" y1="106.73684210526315" y2="106.73684210526315" stroke="rgba(255,255,255,0.05)" stroke-width="1"></line><text x="82" y="115.73684210526315" text-anchor="end" font-family="&#39;Geist Mono&#39;,monospace" font-weight="500" font-size="28" fill="#555555">+60%</text><text x="104.0" y="832" text-anchor="middle" font-family="&#39;Geist Mono&#39;,monospace" font-size="28" fill="#555555">Nov &#39;24</text><text x="468.8" y="832" text-anchor="middle" font-family="&#39;Geist Mono&#39;,monospace" font-size="28" fill="#555555">Mar &#39;25</text><text x="833.6" y="832" text-anchor="middle" font-family="&#39;Geist Mono&#39;,monospace" font-size="28" fill="#555555">Jul &#39;25</text><text x="1219.9" y="832" text-anchor="middle" font-family="&#39;Geist Mono&#39;,monospace" font-size="28" fill="#555555">Nov &#39;25</text><text x="1584.7" y="832" text-anchor="middle" font-family="&#39;Geist Mono&#39;,monospace" font-size="28" fill="#555555">Mar &#39;26</text><text x="1863.6" y="832" text-anchor="middle" font-family="&#39;Geist Mono&#39;,monospace" font-size="28" fill="#555555">Jun &#39;26</text><path d="M104.0,579.2 L104.0,579.2 L125.5,554.6 L146.9,552.5 L168.4,537.0 L189.8,532.0 L211.3,511.5 L232.8,505.4 L254.2,495.8 L275.7,499.6 L297.1,489.5 L318.6,484.4 L340.0,471.2 L361.5,454.8 L383.0,454.8 L404.4,451.4 L425.9,463.3 L447.3,464.6 L468.8,459.4 L490.3,455.6 L511.7,455.9 L533.2,455.9 L554.6,453.7 L576.1,450.7 L597.6,449.2 L619.0,447.4 L640.5,448.0 L661.9,446.7 L683.4,444.3 L704.8,441.7 L726.3,438.3 L747.8,436.1 L769.2,432.1 L790.7,430.0 L812.1,427.0 L833.6,424.1 L855.1,422.9 L876.5,417.2 L898.0,410.0 L919.4,403.2 L940.9,398.1 L962.4,394.0 L983.8,390.2 L1005.3,388.8 L1026.7,384.9 L1048.2,382.3 L1069.6,381.7 L1091.1,377.7 L1112.6,376.5 L1134.0,372.2 L1155.5,370.7 L1176.9,369.3 L1198.4,366.9 L1219.9,365.2 L1241.3,364.0 L1262.8,362.7 L1284.2,360.7 L1305.7,358.0 L1327.2,356.3 L1348.6,355.7 L1370.1,352.6 L1391.5,351.8 L1413.0,345.8 L1434.4,343.5 L1455.9,341.7 L1477.4,340.4 L1498.8,336.1 L1520.3,335.5 L1541.7,333.7 L1563.2,331.2 L1584.7,328.7 L1606.1,327.2 L1627.6,324.9 L1649.0,324.7 L1670.5,324.0 L1692.0,322.2 L1713.4,320.4 L1734.9,320.1 L1756.3,317.6 L1777.8,315.1 L1799.2,311.8 L1820.7,310.7 L1842.2,310.4 L1863.6,307.4 L1885.1,307.3 L1906.5,305.5 L1928.0,303.6 L1928.0,579.2 Z" fill="url(#fga)"></path><polyline points="104.0,579.2 125.5,423.6 146.9,384.5 168.4,367.6 189.8,338.4 211.3,313.3 232.8,325.2 254.2,332.9 275.7,383.7 297.1,377.2 318.6,320.3 340.0,287.5 361.5,287.0 383.0,360.8 404.4,347.6 425.9,360.6 447.3,488.5 468.8,423.2 490.3,495.0 511.7,462.4 533.2,461.9 554.6,507.9 576.1,507.0 597.6,491.8 619.0,391.1 640.5,385.9 661.9,356.5 683.4,288.7 704.8,224.8 726.3,244.4 747.8,276.3 769.2,235.2 790.7,274.8 812.1,248.9 833.6,233.3 855.1,207.7 876.5,130.5 898.0,130.4 919.4,140.0 940.9,169.2 962.4,82.6 983.8,177.0 1005.3,208.8 1026.7,203.5 1048.2,180.3 1069.6,154.1 1091.1,186.8 1112.6,131.5 1134.0,82.5 1155.5,213.3 1176.9,245.5 1198.4,220.9 1219.9,285.1 1241.3,308.2 1262.8,414.4 1284.2,424.3 1305.7,392.9 1327.2,408.6 1348.6,469.8 1370.1,454.5 1391.5,455.6 1413.0,416.0 1434.4,357.5 1455.9,436.2 1477.4,438.1 1498.8,606.4 1520.3,669.2 1541.7,675.1 1563.2,659.1 1584.7,609.6 1606.1,635.7 1627.6,624.9 1649.0,624.2 1670.5,657.9 1692.0,626.2 1713.4,587.8 1734.9,552.5 1756.3,577.7 1777.8,518.9 1799.2,541.3 1820.7,560.3 1842.2,592.6 1863.6,700.2 1885.1,726.9 1906.5,695.9 1928.0,731.6" fill="none" stroke="#EC6A9C" stroke-width="3" stroke-linejoin="round" stroke-linecap="round"></polyline><polyline points="104.0,579.2 125.5,571.7 146.9,580.7 168.4,569.9 189.8,558.2 211.3,558.5 232.8,586.7 254.2,564.4 275.7,585.5 297.1,580.6 318.6,576.4 340.0,558.3 361.5,564.5 383.0,561.6 404.4,562.9 425.9,550.6 447.3,575.5 468.8,590.7 490.3,622.9 511.7,612.9 533.2,608.0 554.6,613.4 576.1,641.8 597.6,665.9 619.0,652.6 640.5,627.0 661.9,618.7 683.4,584.0 704.8,590.3 726.3,584.5 747.8,573.6 769.2,566.8 790.7,572.3 812.1,557.5 833.6,539.6 855.1,534.8 876.5,534.8 898.0,522.1 919.4,521.5 940.9,523.9 962.4,507.7 983.8,517.2 1005.3,505.8 1026.7,510.2 1048.2,499.1 1069.6,490.0 1091.1,485.0 1112.6,475.3 1134.0,469.6 1155.5,480.6 1176.9,476.9 1198.4,451.4 1219.9,464.0 1241.3,456.7 1262.8,484.4 1284.2,461.8 1305.7,456.9 1327.2,452.0 1348.6,474.0 1370.1,445.9 1391.5,457.4 1413.0,447.4 1434.4,446.6 1455.9,453.4 1477.4,439.9 1498.8,452.5 1520.3,444.7 1541.7,452.7 1563.2,444.1 1584.7,454.3 1606.1,466.7 1627.6,486.8 1649.0,491.1 1670.5,493.3 1692.0,465.8 1713.4,433.9 1734.9,418.6 1756.3,418.8 1777.8,388.5 1799.2,377.9 1820.7,379.4 1842.2,367.8 1863.6,363.4 1885.1,401.4 1906.5,381.1 1928.0,389.4" fill="none" stroke="#5C7CF5" stroke-width="3" stroke-linejoin="round" stroke-linecap="round"></polyline><polyline points="104.0,579.2 125.5,554.6 146.9,552.5 168.4,537.0 189.8,532.0 211.3,511.5 232.8,505.4 254.2,495.8 275.7,499.6 297.1,489.5 318.6,484.4 340.0,471.2 361.5,454.8 383.0,454.8 404.4,451.4 425.9,463.3 447.3,464.6 468.8,459.4 490.3,455.6 511.7,455.9 533.2,455.9 554.6,453.7 576.1,450.7 597.6,449.2 619.0,447.4 640.5,448.0 661.9,446.7 683.4,444.3 704.8,441.7 726.3,438.3 747.8,436.1 769.2,432.1 790.7,430.0 812.1,427.0 833.6,424.1 855.1,422.9 876.5,417.2 898.0,410.0 919.4,403.2 940.9,398.1 962.4,394.0 983.8,390.2 1005.3,388.8 1026.7,384.9 1048.2,382.3 1069.6,381.7 1091.1,377.7 1112.6,376.5 1134.0,372.2 1155.5,370.7 1176.9,369.3 1198.4,366.9 1219.9,365.2 1241.3,364.0 1262.8,362.7 1284.2,360.7 1305.7,358.0 1327.2,356.3 1348.6,355.7 1370.1,352.6 1391.5,351.8 1413.0,345.8 1434.4,343.5 1455.9,341.7 1477.4,340.4 1498.8,336.1 1520.3,335.5 1541.7,333.7 1563.2,331.2 1584.7,328.7 1606.1,327.2 1627.6,324.9 1649.0,324.7 1670.5,324.0 1692.0,322.2 1713.4,320.4 1734.9,320.1 1756.3,317.6 1777.8,315.1 1799.2,311.8 1820.7,310.7 1842.2,310.4 1863.6,307.4 1885.1,307.3 1906.5,305.5 1928.0,303.6" fill="none" stroke="url(#fgl)" stroke-width="7" stroke-linejoin="round" stroke-linecap="round"></polyline><text x="1954" y="321.57894736842104" font-family="&#39;Geist Mono&#39;,monospace" font-size="54" font-weight="600" fill="#FE5A19">+35%</text><text x="1954" y="407.40210526315786" font-family="&#39;Geist Mono&#39;,monospace" font-size="54" font-weight="600" fill="#5C7CF5">+24%</text><text x="1954" y="749.5924210526315" font-family="&#39;Geist Mono&#39;,monospace" font-size="54" font-weight="600" fill="#EC6A9C">−19%</text></svg></svg>