<?xml version="1.0"?>
<svg xmlns="http://www.w3.org/2000/svg" width="2400" height="1150" viewBox="0 0 2400 1150" font-family="&#39;Geist Mono&#39;,monospace">
<defs>
<pattern id="grid" width="80" height="80" patternUnits="userSpaceOnUse"><path d="M80 0H0V80" fill="none" stroke="rgba(255,255,255,0.022)" stroke-width="1"></path></pattern></defs>
<rect x="0" y="0" width="2400" height="1150" fill="#0F1117"></rect>
<rect x="0" y="0" width="2400" height="1150" fill="url(#grid)"></rect><path d="M90,44 L44,44 L44,90" fill="none" stroke="#FE5A19" stroke-width="2"></path><path d="M2310,44 L2356,44 L2356,90" fill="none" stroke="#FE5A19" stroke-width="2"></path><path d="M90,1106 L44,1106 L44,1060" fill="none" stroke="#FE5A19" stroke-width="2"></path><path d="M2310,1106 L2356,1106 L2356,1060" fill="none" stroke="#FE5A19" stroke-width="2"></path><image x="104" y="86" height="54" width="305.4"></image><g><rect x="1904" y="98" width="392" height="64" rx="10" fill="none" stroke="rgba(255,255,255,0.10)"></rect><text x="2100" y="139" text-anchor="middle" font-family="&#39;Geist Mono&#39;,monospace" font-weight="500" font-size="28" letter-spacing="2" fill="#8A8F99">NOV 2024 — JUN 2026</text></g><text x="104" y="262" font-family="&#39;Geist Mono&#39;,monospace" font-weight="600" font-size="52" letter-spacing="1" fill="#FFFFFF">MONTHLY RETURN</text><svg x="110" y="384" width="2210" height="645.3" viewBox="0 0 2192 640"><defs><linearGradient id="grn" x1="0" y1="0" x2="0" y2="1"><stop offset="0" stop-color="#2BD46A"></stop><stop offset="1" stop-color="#1A9E4E"></stop></linearGradient><linearGradient id="red" x1="0" y1="0" x2="0" y2="1"><stop offset="0" stop-color="#F26565"></stop><stop offset="1" stop-color="#D13333"></stop></linearGradient></defs><line x1="118" x2="2176" y1="452.4390243902439" y2="452.4390243902439" stroke="rgba(255,255,255,0.22)" stroke-width="2"></line><text x="88" y="467.4390243902439" text-anchor="end" font-family="&#39;Geist Mono&#39;,monospace" font-weight="500" font-size="44" fill="#9AA0AB">+0%</text><line x1="118" x2="2176" y1="326.5853658536586" y2="326.5853658536586" stroke="rgba(255,255,255,0.07)" stroke-width="1"></line><text x="88" y="341.5853658536586" text-anchor="end" font-family="&#39;Geist Mono&#39;,monospace" font-weight="500" font-size="44" fill="#9AA0AB">+2%</text><line x1="118" x2="2176" y1="200.7317073170732" y2="200.7317073170732" stroke="rgba(255,255,255,0.07)" stroke-width="1"></line><text x="88" y="215.7317073170732" text-anchor="end" font-family="&#39;Geist Mono&#39;,monospace" font-weight="500" font-size="44" fill="#9AA0AB">+4%</text><line x1="118" x2="2176" y1="74.8780487804878" y2="74.8780487804878" stroke="rgba(255,255,255,0.07)" stroke-width="1"></line><text x="88" y="89.8780487804878" text-anchor="end" font-family="&#39;Geist Mono&#39;,monospace" font-weight="500" font-size="44" fill="#9AA0AB">+6%</text><rect x="137.6" y="100.0" width="63.8" height="352.4" rx="7" fill="url(#grn)"></rect><text x="169.4" y="634" text-anchor="middle" font-family="&#39;Geist Mono&#39;,monospace" font-size="32" fill="#8A8F99">Nov</text><rect x="240.5" y="175.6" width="63.8" height="276.9" rx="7" fill="url(#grn)"></rect><text x="272.4" y="634" text-anchor="middle" font-family="&#39;Geist Mono&#39;,monospace" font-size="32" fill="#8A8F99">Dec</text><rect x="343.4" y="106.3" width="63.8" height="346.1" rx="7" fill="url(#grn)"></rect><text x="375.3" y="634" text-anchor="middle" font-family="&#39;Geist Mono&#39;,monospace" font-size="32" fill="#8A8F99">Jan</text><rect x="446.3" y="452.4" width="63.8" height="75.5" rx="7" fill="url(#red)"></rect><text x="478.2" y="634" text-anchor="middle" font-family="&#39;Geist Mono&#39;,monospace" font-size="32" fill="#8A8F99">Feb</text><rect x="549.2" y="395.8" width="63.8" height="56.6" rx="7" fill="url(#grn)"></rect><text x="581.0" y="634" text-anchor="middle" font-family="&#39;Geist Mono&#39;,monospace" font-size="32" fill="#8A8F99">Mar</text><rect x="652.1" y="414.7" width="63.8" height="37.8" rx="7" fill="url(#grn)"></rect><text x="684.0" y="634" text-anchor="middle" font-family="&#39;Geist Mono&#39;,monospace" font-size="32" fill="#8A8F99">Apr</text><rect x="755.0" y="376.9" width="63.8" height="75.5" rx="7" fill="url(#grn)"></rect><text x="786.9" y="634" text-anchor="middle" font-family="&#39;Geist Mono&#39;,monospace" font-size="32" fill="#8A8F99">May</text><rect x="857.9" y="370.6" width="63.8" height="81.8" rx="7" fill="url(#grn)"></rect><text x="889.8" y="634" text-anchor="middle" font-family="&#39;Geist Mono&#39;,monospace" font-size="32" fill="#8A8F99">Jun</text><rect x="960.8" y="307.7" width="63.8" height="144.7" rx="7" fill="url(#grn)"></rect><text x="992.7" y="634" text-anchor="middle" font-family="&#39;Geist Mono&#39;,monospace" font-size="32" fill="#8A8F99">Jul</text><rect x="1063.7" y="351.8" width="63.8" height="100.7" rx="7" fill="url(#grn)"></rect><text x="1095.6" y="634" text-anchor="middle" font-family="&#39;Geist Mono&#39;,monospace" font-size="32" fill="#8A8F99">Aug</text><rect x="1166.6" y="376.9" width="63.8" height="75.5" rx="7" fill="url(#grn)"></rect><text x="1198.5" y="634" text-anchor="middle" font-family="&#39;Geist Mono&#39;,monospace" font-size="32" fill="#8A8F99">Sep</text><rect x="1269.5" y="389.5" width="63.8" height="62.9" rx="7" fill="url(#grn)"></rect><text x="1301.4" y="634" text-anchor="middle" font-family="&#39;Geist Mono&#39;,monospace" font-size="32" fill="#8A8F99">Oct</text><rect x="1372.4" y="408.4" width="63.8" height="44.0" rx="7" fill="url(#grn)"></rect><text x="1404.3" y="634" text-anchor="middle" font-family="&#39;Geist Mono&#39;,monospace" font-size="32" fill="#8A8F99">Nov</text><rect x="1475.3" y="408.4" width="63.8" height="44.0" rx="7" fill="url(#grn)"></rect><text x="1507.2" y="634" text-anchor="middle" font-family="&#39;Geist Mono&#39;,monospace" font-size="32" fill="#8A8F99">Dec</text><rect x="1578.2" y="364.3" width="63.8" height="88.1" rx="7" fill="url(#grn)"></rect><text x="1610.1" y="634" text-anchor="middle" font-family="&#39;Geist Mono&#39;,monospace" font-size="32" fill="#8A8F99">Jan</text><rect x="1681.1" y="408.4" width="63.8" height="44.0" rx="7" fill="url(#grn)"></rect><text x="1713.0" y="634" text-anchor="middle" font-family="&#39;Geist Mono&#39;,monospace" font-size="32" fill="#8A8F99">Feb</text><rect x="1784.0" y="414.7" width="63.8" height="37.8" rx="7" fill="url(#grn)"></rect><text x="1815.9" y="634" text-anchor="middle" font-family="&#39;Geist Mono&#39;,monospace" font-size="32" fill="#8A8F99">Mar</text><rect x="1886.9" y="414.7" width="63.8" height="37.8" rx="7" fill="url(#grn)"></rect><text x="1918.8" y="634" text-anchor="middle" font-family="&#39;Geist Mono&#39;,monospace" font-size="32" fill="#8A8F99">Apr</text><rect x="1989.8" y="408.4" width="63.8" height="44.0" rx="7" fill="url(#grn)"></rect><text x="2021.7" y="634" text-anchor="middle" font-family="&#39;Geist Mono&#39;,monospace" font-size="32" fill="#8A8F99">May</text><rect x="2092.7" y="414.7" width="63.8" height="37.8" rx="7" fill="url(#grn)"></rect><text x="2124.6" y="634" text-anchor="middle" font-family="&#39;Geist Mono&#39;,monospace" font-size="32" fill="#8A8F99">Jun</text></svg></svg>