<?xml version="1.0"?>
<svg xmlns="http://www.w3.org/2000/svg" width="2400" height="1150" viewBox="0 0 2400 1150" font-family="&#39;Geist Mono&#39;,monospace">
<defs>
<pattern id="grid" width="80" height="80" patternUnits="userSpaceOnUse"><path d="M80 0H0V80" fill="none" stroke="rgba(255,255,255,0.022)" stroke-width="1"></path></pattern></defs>
<rect x="0" y="0" width="2400" height="1150" fill="#0F1117"></rect>
<rect x="0" y="0" width="2400" height="1150" fill="url(#grid)"></rect><path d="M90,44 L44,44 L44,90" fill="none" stroke="#FE5A19" stroke-width="2"></path><path d="M2310,44 L2356,44 L2356,90" fill="none" stroke="#FE5A19" stroke-width="2"></path><path d="M90,1106 L44,1106 L44,1060" fill="none" stroke="#FE5A19" stroke-width="2"></path><path d="M2310,1106 L2356,1106 L2356,1060" fill="none" stroke="#FE5A19" stroke-width="2"></path><image x="104" y="86" height="54" width="305.4"></image><g><rect x="1904" y="98" width="392" height="64" rx="10" fill="none" stroke="rgba(255,255,255,0.10)"></rect><text x="2100" y="139" text-anchor="middle" font-family="&#39;Geist Mono&#39;,monospace" font-weight="500" font-size="28" letter-spacing="2" fill="#8A8F99">NOV 2024 — JUN 2026</text></g><text x="104" y="262" font-family="&#39;Geist Mono&#39;,monospace" font-weight="600" font-size="52" letter-spacing="1" fill="#FFFFFF">MONTHLY RETURN</text><text x="104" y="314" font-family="&#39;Geist Mono&#39;,monospace" font-size="28" letter-spacing="0.5" fill="#666666">flagship  ·  gross of fees</text><line x1="1865.2" x2="1911.2" y1="252" y2="252" stroke="#22C55E" stroke-width="6" stroke-linecap="round"></line><text x="1923.2" y="262" font-family="&#39;Geist Mono&#39;,monospace" font-size="28" fill="#22C55E">Positive</text><line x1="2103.6" x2="2149.6" y1="252" y2="252" stroke="#EF4444" stroke-width="6" stroke-linecap="round"></line><text x="2161.6" y="262" font-family="&#39;Geist Mono&#39;,monospace" font-size="28" fill="#EF4444">Negative</text><svg x="110" y="384" width="2210" height="645.3" viewBox="0 0 2192 640"><defs><linearGradient id="grn" x1="0" y1="0" x2="0" y2="1"><stop offset="0" stop-color="#2BD46A"></stop><stop offset="1" stop-color="#1A9E4E"></stop></linearGradient><linearGradient id="red" x1="0" y1="0" x2="0" y2="1"><stop offset="0" stop-color="#F26565"></stop><stop offset="1" stop-color="#D13333"></stop></linearGradient></defs><line x1="118" x2="2176" y1="452.4390243902439" y2="452.4390243902439" stroke="rgba(255,255,255,0.20)" stroke-width="2"></line><text x="94" y="461.4390243902439" text-anchor="end" font-family="&#39;Geist Mono&#39;,monospace" font-weight="500" font-size="28" fill="#555555">+0%</text><line x1="118" x2="2176" y1="326.5853658536586" y2="326.5853658536586" stroke="rgba(255,255,255,0.05)" stroke-width="1"></line><text x="94" y="335.5853658536586" text-anchor="end" font-family="&#39;Geist Mono&#39;,monospace" font-weight="500" font-size="28" fill="#555555">+2%</text><line x1="118" x2="2176" y1="200.7317073170732" y2="200.7317073170732" stroke="rgba(255,255,255,0.05)" stroke-width="1"></line><text x="94" y="209.7317073170732" text-anchor="end" font-family="&#39;Geist Mono&#39;,monospace" font-weight="500" font-size="28" fill="#555555">+4%</text><line x1="118" x2="2176" y1="74.8780487804878" y2="74.8780487804878" stroke="rgba(255,255,255,0.05)" stroke-width="1"></line><text x="94" y="83.8780487804878" text-anchor="end" font-family="&#39;Geist Mono&#39;,monospace" font-weight="500" font-size="28" fill="#555555">+6%</text><rect x="141.7" y="100.0" width="55.6" height="352.4" rx="7" fill="url(#grn)"></rect><text x="169.4" y="78.0" text-anchor="middle" font-family="&#39;Geist Mono&#39;,monospace" font-size="30" font-weight="600" fill="#8BEAB0">+5.6</text><text x="169.4" y="626" text-anchor="middle" font-family="&#39;Geist Mono&#39;,monospace" font-size="26" fill="#666666">Nov &#39;24</text><rect x="244.6" y="175.6" width="55.6" height="276.9" rx="7" fill="url(#grn)"></rect><text x="272.4" y="153.6" text-anchor="middle" font-family="&#39;Geist Mono&#39;,monospace" font-size="30" font-weight="600" fill="#8BEAB0">+4.4</text><text x="272.4" y="626" text-anchor="middle" font-family="&#39;Geist Mono&#39;,monospace" font-size="26" fill="#666666">Dec</text><rect x="347.5" y="106.3" width="55.6" height="346.1" rx="7" fill="url(#grn)"></rect><text x="375.3" y="84.3" text-anchor="middle" font-family="&#39;Geist Mono&#39;,monospace" font-size="30" font-weight="600" fill="#8BEAB0">+5.5</text><text x="375.3" y="626" text-anchor="middle" font-family="&#39;Geist Mono&#39;,monospace" font-size="26" fill="#666666">Jan &#39;25</text><rect x="450.4" y="452.4" width="55.6" height="75.5" rx="7" fill="url(#red)"></rect><text x="478.2" y="574.0" text-anchor="middle" font-family="&#39;Geist Mono&#39;,monospace" font-size="30" font-weight="600" fill="#F4A0A0">−1.2</text><text x="478.2" y="626" text-anchor="middle" font-family="&#39;Geist Mono&#39;,monospace" font-size="26" fill="#666666">Feb</text><rect x="553.3" y="395.8" width="55.6" height="56.6" rx="7" fill="url(#grn)"></rect><text x="581.0" y="373.8" text-anchor="middle" font-family="&#39;Geist Mono&#39;,monospace" font-size="30" font-weight="600" fill="#8BEAB0">+0.9</text><text x="581.0" y="626" text-anchor="middle" font-family="&#39;Geist Mono&#39;,monospace" font-size="26" fill="#666666">Mar</text><rect x="656.2" y="414.7" width="55.6" height="37.8" rx="7" fill="url(#grn)"></rect><text x="684.0" y="392.7" text-anchor="middle" font-family="&#39;Geist Mono&#39;,monospace" font-size="30" font-weight="600" fill="#8BEAB0">+0.6</text><text x="684.0" y="626" text-anchor="middle" font-family="&#39;Geist Mono&#39;,monospace" font-size="26" fill="#666666">Apr</text><rect x="759.1" y="376.9" width="55.6" height="75.5" rx="7" fill="url(#grn)"></rect><text x="786.9" y="354.9" text-anchor="middle" font-family="&#39;Geist Mono&#39;,monospace" font-size="30" font-weight="600" fill="#8BEAB0">+1.2</text><text x="786.9" y="626" text-anchor="middle" font-family="&#39;Geist Mono&#39;,monospace" font-size="26" fill="#666666">May</text><rect x="862.0" y="370.6" width="55.6" height="81.8" rx="7" fill="url(#grn)"></rect><text x="889.8" y="348.6" text-anchor="middle" font-family="&#39;Geist Mono&#39;,monospace" font-size="30" font-weight="600" fill="#8BEAB0">+1.3</text><text x="889.8" y="626" text-anchor="middle" font-family="&#39;Geist Mono&#39;,monospace" font-size="26" fill="#666666">Jun</text><rect x="964.9" y="307.7" width="55.6" height="144.7" rx="7" fill="url(#grn)"></rect><text x="992.7" y="285.7" text-anchor="middle" font-family="&#39;Geist Mono&#39;,monospace" font-size="30" font-weight="600" fill="#8BEAB0">+2.3</text><text x="992.7" y="626" text-anchor="middle" font-family="&#39;Geist Mono&#39;,monospace" font-size="26" fill="#666666">Jul</text><rect x="1067.8" y="351.8" width="55.6" height="100.7" rx="7" fill="url(#grn)"></rect><text x="1095.6" y="329.8" text-anchor="middle" font-family="&#39;Geist Mono&#39;,monospace" font-size="30" font-weight="600" fill="#8BEAB0">+1.6</text><text x="1095.6" y="626" text-anchor="middle" font-family="&#39;Geist Mono&#39;,monospace" font-size="26" fill="#666666">Aug</text><rect x="1170.7" y="376.9" width="55.6" height="75.5" rx="7" fill="url(#grn)"></rect><text x="1198.5" y="354.9" text-anchor="middle" font-family="&#39;Geist Mono&#39;,monospace" font-size="30" font-weight="600" fill="#8BEAB0">+1.2</text><text x="1198.5" y="626" text-anchor="middle" font-family="&#39;Geist Mono&#39;,monospace" font-size="26" fill="#666666">Sep</text><rect x="1273.6" y="389.5" width="55.6" height="62.9" rx="7" fill="url(#grn)"></rect><text x="1301.4" y="367.5" text-anchor="middle" font-family="&#39;Geist Mono&#39;,monospace" font-size="30" font-weight="600" fill="#8BEAB0">+1.0</text><text x="1301.4" y="626" text-anchor="middle" font-family="&#39;Geist Mono&#39;,monospace" font-size="26" fill="#666666">Oct</text><rect x="1376.5" y="408.4" width="55.6" height="44.0" rx="7" fill="url(#grn)"></rect><text x="1404.3" y="386.4" text-anchor="middle" font-family="&#39;Geist Mono&#39;,monospace" font-size="30" font-weight="600" fill="#8BEAB0">+0.7</text><text x="1404.3" y="626" text-anchor="middle" font-family="&#39;Geist Mono&#39;,monospace" font-size="26" fill="#666666">Nov</text><rect x="1479.4" y="408.4" width="55.6" height="44.0" rx="7" fill="url(#grn)"></rect><text x="1507.2" y="386.4" text-anchor="middle" font-family="&#39;Geist Mono&#39;,monospace" font-size="30" font-weight="600" fill="#8BEAB0">+0.7</text><text x="1507.2" y="626" text-anchor="middle" font-family="&#39;Geist Mono&#39;,monospace" font-size="26" fill="#666666">Dec</text><rect x="1582.3" y="364.3" width="55.6" height="88.1" rx="7" fill="url(#grn)"></rect><text x="1610.1" y="342.3" text-anchor="middle" font-family="&#39;Geist Mono&#39;,monospace" font-size="30" font-weight="600" fill="#8BEAB0">+1.4</text><text x="1610.1" y="626" text-anchor="middle" font-family="&#39;Geist Mono&#39;,monospace" font-size="26" fill="#666666">Jan &#39;26</text><rect x="1685.2" y="408.4" width="55.6" height="44.0" rx="7" fill="url(#grn)"></rect><text x="1713.0" y="386.4" text-anchor="middle" font-family="&#39;Geist Mono&#39;,monospace" font-size="30" font-weight="600" fill="#8BEAB0">+0.7</text><text x="1713.0" y="626" text-anchor="middle" font-family="&#39;Geist Mono&#39;,monospace" font-size="26" fill="#666666">Feb</text><rect x="1788.1" y="414.7" width="55.6" height="37.8" rx="7" fill="url(#grn)"></rect><text x="1815.9" y="392.7" text-anchor="middle" font-family="&#39;Geist Mono&#39;,monospace" font-size="30" font-weight="600" fill="#8BEAB0">+0.6</text><text x="1815.9" y="626" text-anchor="middle" font-family="&#39;Geist Mono&#39;,monospace" font-size="26" fill="#666666">Mar</text><rect x="1891.0" y="414.7" width="55.6" height="37.8" rx="7" fill="url(#grn)"></rect><text x="1918.8" y="392.7" text-anchor="middle" font-family="&#39;Geist Mono&#39;,monospace" font-size="30" font-weight="600" fill="#8BEAB0">+0.6</text><text x="1918.8" y="626" text-anchor="middle" font-family="&#39;Geist Mono&#39;,monospace" font-size="26" fill="#666666">Apr</text><rect x="1993.9" y="408.4" width="55.6" height="44.0" rx="7" fill="url(#grn)"></rect><text x="2021.7" y="386.4" text-anchor="middle" font-family="&#39;Geist Mono&#39;,monospace" font-size="30" font-weight="600" fill="#8BEAB0">+0.7</text><text x="2021.7" y="626" text-anchor="middle" font-family="&#39;Geist Mono&#39;,monospace" font-size="26" fill="#666666">May</text><rect x="2096.8" y="414.7" width="55.6" height="37.8" rx="7" fill="url(#grn)"></rect><text x="2124.6" y="392.7" text-anchor="middle" font-family="&#39;Geist Mono&#39;,monospace" font-size="30" font-weight="600" fill="#8BEAB0">+0.6</text><text x="2124.6" y="626" text-anchor="middle" font-family="&#39;Geist Mono&#39;,monospace" font-size="26" fill="#666666">Jun</text></svg></svg>