<?xml version="1.0"?>
<svg xmlns="http://www.w3.org/2000/svg" width="2400" height="1440" viewBox="0 0 2400 1440" font-family="&#39;Geist Mono&#39;,monospace">
<defs>
<pattern id="grid" width="80" height="80" patternUnits="userSpaceOnUse"><path d="M80 0H0V80" fill="none" stroke="rgba(255,255,255,0.022)" stroke-width="1"></path></pattern></defs>
<rect x="0" y="0" width="2400" height="1440" fill="#0F1117"></rect>
<rect x="0" y="0" width="2400" height="1440" fill="url(#grid)"></rect><path d="M90,44 L44,44 L44,90" fill="none" stroke="#FE5A19" stroke-width="2"></path><path d="M2310,44 L2356,44 L2356,90" fill="none" stroke="#FE5A19" stroke-width="2"></path><path d="M90,1396 L44,1396 L44,1350" fill="none" stroke="#FE5A19" stroke-width="2"></path><path d="M2310,1396 L2356,1396 L2356,1350" fill="none" stroke="#FE5A19" stroke-width="2"></path><image x="104" y="86" height="54" width="305.4"></image><g><rect x="1904" y="98" width="392" height="64" rx="10" fill="none" stroke="rgba(255,255,255,0.10)"></rect><text x="2100" y="139" text-anchor="middle" font-family="&#39;Geist Mono&#39;,monospace" font-weight="500" font-size="28" letter-spacing="2" fill="#8A8F99">NOV 2024 — JUN 2026</text></g><text x="104" y="262" font-family="&#39;Geist Mono&#39;,monospace" font-weight="600" font-size="52" letter-spacing="1" fill="#FFFFFF">STRATEGY ALLOCATION</text><text x="104" y="314" font-family="&#39;Geist Mono&#39;,monospace" font-size="28" letter-spacing="0.5" fill="#666666">share of portfolio by strategy type</text><svg x="110" y="384" width="2210" height="806.6" viewBox="0 0 2192 800"><line x1="150" x2="2110" y1="700" y2="700" stroke="rgba(255,255,255,0.06)" stroke-width="1"></line><text x="122" y="714" text-anchor="end" font-family="&#39;Geist Mono&#39;,monospace" font-weight="500" font-size="40" fill="#9AA0AB">0%</text><line x1="150" x2="2110" y1="534" y2="534" stroke="rgba(255,255,255,0.06)" stroke-width="1"></line><text x="122" y="548" text-anchor="end" font-family="&#39;Geist Mono&#39;,monospace" font-weight="500" font-size="40" fill="#9AA0AB">25%</text><line x1="150" x2="2110" y1="368" y2="368" stroke="rgba(255,255,255,0.06)" stroke-width="1"></line><text x="122" y="382" text-anchor="end" font-family="&#39;Geist Mono&#39;,monospace" font-weight="500" font-size="40" fill="#9AA0AB">50%</text><line x1="150" x2="2110" y1="202" y2="202" stroke="rgba(255,255,255,0.06)" stroke-width="1"></line><text x="122" y="216" text-anchor="end" font-family="&#39;Geist Mono&#39;,monospace" font-weight="500" font-size="40" fill="#9AA0AB">75%</text><line x1="150" x2="2110" y1="36" y2="36" stroke="rgba(255,255,255,0.06)" stroke-width="1"></line><text x="122" y="50" text-anchor="end" font-family="&#39;Geist Mono&#39;,monospace" font-weight="500" font-size="40" fill="#9AA0AB">100%</text><path d="M150.0,700.0 L1134.9,700.0 L1134.9,700.0 L1296.4,700.0 L1296.4,700.0 L1550.0,700.0 L1550.0,434.4 L1905.8,434.4 L1905.8,434.4 L1978.2,434.4 L1978.2,434.4 L2110.0,434.4 L2110.0,700.0 L1978.2,700.0 L1978.2,700.0 L1905.8,700.0 L1905.8,700.0 L1550.0,700.0 L1550.0,700.0 L1296.4,700.0 L1296.4,700.0 L1134.9,700.0 L1134.9,700.0 L150.0,700.0 Z" fill="#FE5A19" stroke="#0F1117" stroke-width="1.5" stroke-linejoin="miter"></path><path d="M150.0,700.0 L1134.9,700.0 L1134.9,500.8 L1296.4,500.8 L1296.4,500.8 L1550.0,500.8 L1550.0,235.2 L1905.8,235.2 L1905.8,235.2 L1978.2,235.2 L1978.2,268.4 L2110.0,268.4 L2110.0,434.4 L1978.2,434.4 L1978.2,434.4 L1905.8,434.4 L1905.8,434.4 L1550.0,434.4 L1550.0,700.0 L1296.4,700.0 L1296.4,700.0 L1134.9,700.0 L1134.9,700.0 L150.0,700.0 Z" fill="#9AA8C8" stroke="#0F1117" stroke-width="1.5" stroke-linejoin="miter"></path><path d="M150.0,700.0 L1134.9,700.0 L1134.9,500.8 L1296.4,500.8 L1296.4,500.8 L1550.0,500.8 L1550.0,235.2 L1905.8,235.2 L1905.8,235.2 L1978.2,235.2 L1978.2,168.8 L2110.0,168.8 L2110.0,268.4 L1978.2,268.4 L1978.2,235.2 L1905.8,235.2 L1905.8,235.2 L1550.0,235.2 L1550.0,500.8 L1296.4,500.8 L1296.4,500.8 L1134.9,500.8 L1134.9,700.0 L150.0,700.0 Z" fill="#7C8AB0" stroke="#0F1117" stroke-width="1.5" stroke-linejoin="miter"></path><path d="M150.0,700.0 L1134.9,700.0 L1134.9,500.8 L1296.4,500.8 L1296.4,301.6 L1550.0,301.6 L1550.0,36.0 L1905.8,36.0 L1905.8,135.6 L1978.2,135.6 L1978.2,102.4 L2110.0,102.4 L2110.0,168.8 L1978.2,168.8 L1978.2,235.2 L1905.8,235.2 L1905.8,235.2 L1550.0,235.2 L1550.0,500.8 L1296.4,500.8 L1296.4,500.8 L1134.9,500.8 L1134.9,700.0 L150.0,700.0 Z" fill="#5E6C93" stroke="#0F1117" stroke-width="1.5" stroke-linejoin="miter"></path><path d="M150.0,700.0 L1134.9,700.0 L1134.9,500.8 L1296.4,500.8 L1296.4,301.6 L1550.0,301.6 L1550.0,36.0 L1905.8,36.0 L1905.8,36.0 L1978.2,36.0 L1978.2,36.0 L2110.0,36.0 L2110.0,102.4 L1978.2,102.4 L1978.2,135.6 L1905.8,135.6 L1905.8,36.0 L1550.0,36.0 L1550.0,301.6 L1296.4,301.6 L1296.4,500.8 L1134.9,500.8 L1134.9,700.0 L150.0,700.0 Z" fill="#454F73" stroke="#0F1117" stroke-width="1.5" stroke-linejoin="miter"></path><path d="M150.0,36.0 L1134.9,36.0 L1134.9,36.0 L1296.4,36.0 L1296.4,36.0 L1550.0,36.0 L1550.0,36.0 L1905.8,36.0 L1905.8,36.0 L1978.2,36.0 L1978.2,36.0 L2110.0,36.0 L2110.0,36.0 L1978.2,36.0 L1978.2,36.0 L1905.8,36.0 L1905.8,36.0 L1550.0,36.0 L1550.0,301.6 L1296.4,301.6 L1296.4,500.8 L1134.9,500.8 L1134.9,700.0 L150.0,700.0 Z" fill="#2F3654" stroke="#0F1117" stroke-width="1.5" stroke-linejoin="miter"></path><text x="190.0" y="760" text-anchor="middle" font-family="&#39;Geist Mono&#39;,monospace" font-size="32" fill="#8A8F99">Nov &#39;24</text><text x="528.8" y="760" text-anchor="middle" font-family="&#39;Geist Mono&#39;,monospace" font-size="32" fill="#8A8F99">Mar &#39;25</text><text x="930.7" y="760" text-anchor="middle" font-family="&#39;Geist Mono&#39;,monospace" font-size="32" fill="#8A8F99">Jul &#39;25</text><text x="1335.9" y="760" text-anchor="middle" font-family="&#39;Geist Mono&#39;,monospace" font-size="32" fill="#8A8F99">Nov &#39;25</text><text x="1731.2" y="760" text-anchor="middle" font-family="&#39;Geist Mono&#39;,monospace" font-size="32" fill="#8A8F99">Mar &#39;26</text><text x="2070.0" y="760" text-anchor="middle" font-family="&#39;Geist Mono&#39;,monospace" font-size="32" fill="#8A8F99">Jun &#39;26</text></svg><rect x="104" y="1246" width="26" height="26" rx="6" fill="#FE5A19"></rect><text x="144" y="1268" font-family="&#39;Geist Mono&#39;,monospace" font-size="29" fill="#FFFFFF">Cross-Exchange Arb</text><text x="468.40000000000003" y="1268" font-family="&#39;Geist Mono&#39;,monospace" font-weight="600" font-size="29" fill="#888888">40%</text><rect x="830" y="1246" width="26" height="26" rx="6" fill="#9AA8C8"></rect><text x="870" y="1268" font-family="&#39;Geist Mono&#39;,monospace" font-size="29" fill="#FFFFFF">HL Funding Arb</text><text x="1127.2" y="1268" font-family="&#39;Geist Mono&#39;,monospace" font-weight="600" font-size="29" fill="#888888">25%</text><rect x="1560" y="1246" width="26" height="26" rx="6" fill="#7C8AB0"></rect><text x="1600" y="1268" font-family="&#39;Geist Mono&#39;,monospace" font-size="29" fill="#FFFFFF">Delta-Neutral Arb</text><text x="1907.6" y="1268" font-family="&#39;Geist Mono&#39;,monospace" font-weight="600" font-size="29" fill="#888888">15%</text><rect x="104" y="1308" width="26" height="26" rx="6" fill="#5E6C93"></rect><text x="144" y="1330" font-family="&#39;Geist Mono&#39;,monospace" font-size="29" fill="#FFFFFF">JLP-DN Enhanced</text><text x="418" y="1330" font-family="&#39;Geist Mono&#39;,monospace" font-weight="600" font-size="29" fill="#888888">10%</text><rect x="830" y="1308" width="26" height="26" rx="6" fill="#454F73"></rect><text x="870" y="1330" font-family="&#39;Geist Mono&#39;,monospace" font-size="29" fill="#FFFFFF">Mid-Freq Market Making</text><text x="1261.6" y="1330" font-family="&#39;Geist Mono&#39;,monospace" font-weight="600" font-size="29" fill="#888888">10%</text><rect x="1560" y="1308" width="26" height="26" rx="6" fill="#2F3654"></rect><text x="1600" y="1330" font-family="&#39;Geist Mono&#39;,monospace" font-size="29" fill="#888888">JLP Delta-Neutral</text><text x="1907.6" y="1330" font-family="&#39;Geist Mono&#39;,monospace" font-weight="600" font-size="29" fill="#555555">0% · genesis</text></svg>